<svg xmlns="http://www.w3.org/2000/svg" xmlns:xlink="http://www.w3.org/1999/xlink" width="157" zoomAndPan="magnify" viewBox="0 0 117.75 37.5" height="50" preserveAspectRatio="xMidYMid meet" version="1.0"><defs><g/><clipPath id="id1"><path d="M 2 12.3125 L 24 12.3125 L 24 24 L 2 24 Z M 2 12.3125 " clip-rule="nonzero"/></clipPath><clipPath id="id2"><path d="M 0.652344 17 L 25.871094 17 L 25.871094 28.628906 L 0.652344 28.628906 Z M 0.652344 17 " clip-rule="nonzero"/></clipPath></defs><g fill="#1158c9" fill-opacity="0.4"><g transform="translate(31.144574, 25.661503)"><g><path d="M 6.6875 -1.53125 L 3.359375 -1.53125 L 2.859375 0 L 0.109375 0 L 3.53125 -9.390625 L 6.546875 -9.390625 L 9.953125 0 L 7.203125 0 Z M 6.03125 -3.53125 L 5.03125 -6.578125 L 4.03125 -3.53125 Z M 6.03125 -3.53125 "/></g></g></g><g fill="#1158c9" fill-opacity="0.4"><g transform="translate(41.944131, 25.661503)"><g><path d="M 5.640625 -7.546875 C 6.503906 -7.546875 7.1875 -7.257812 7.6875 -6.6875 C 8.195312 -6.113281 8.453125 -5.335938 8.453125 -4.359375 L 8.453125 0 L 5.84375 0 L 5.84375 -4.015625 C 5.84375 -4.441406 5.726562 -4.773438 5.5 -5.015625 C 5.28125 -5.265625 4.984375 -5.390625 4.609375 -5.390625 C 4.222656 -5.390625 3.914062 -5.265625 3.6875 -5.015625 C 3.46875 -4.773438 3.359375 -4.441406 3.359375 -4.015625 L 3.359375 0 L 0.75 0 L 0.75 -7.484375 L 3.359375 -7.484375 L 3.359375 -6.40625 C 3.585938 -6.75 3.894531 -7.023438 4.28125 -7.234375 C 4.675781 -7.441406 5.128906 -7.546875 5.640625 -7.546875 Z M 5.640625 -7.546875 "/></g></g></g><g fill="#1158c9" fill-opacity="0.4"><g transform="translate(51.824899, 25.661503)"><g><path d="M 4.21875 0.09375 C 3.476562 0.09375 2.8125 -0.0625 2.21875 -0.375 C 1.625 -0.6875 1.15625 -1.128906 0.8125 -1.703125 C 0.476562 -2.285156 0.3125 -2.96875 0.3125 -3.75 C 0.3125 -4.519531 0.484375 -5.191406 0.828125 -5.765625 C 1.171875 -6.347656 1.640625 -6.796875 2.234375 -7.109375 C 2.828125 -7.421875 3.492188 -7.578125 4.234375 -7.578125 C 4.984375 -7.578125 5.648438 -7.421875 6.234375 -7.109375 C 6.828125 -6.796875 7.296875 -6.347656 7.640625 -5.765625 C 7.984375 -5.191406 8.15625 -4.519531 8.15625 -3.75 C 8.15625 -2.96875 7.984375 -2.285156 7.640625 -1.703125 C 7.296875 -1.128906 6.828125 -0.6875 6.234375 -0.375 C 5.640625 -0.0625 4.96875 0.09375 4.21875 0.09375 Z M 4.21875 -2.171875 C 4.582031 -2.171875 4.882812 -2.304688 5.125 -2.578125 C 5.375 -2.847656 5.5 -3.238281 5.5 -3.75 C 5.5 -4.25 5.375 -4.628906 5.125 -4.890625 C 4.882812 -5.160156 4.585938 -5.296875 4.234375 -5.296875 C 3.878906 -5.296875 3.582031 -5.160156 3.34375 -4.890625 C 3.101562 -4.628906 2.984375 -4.25 2.984375 -3.75 C 2.984375 -3.226562 3.097656 -2.832031 3.328125 -2.5625 C 3.554688 -2.300781 3.851562 -2.171875 4.21875 -2.171875 Z M 4.21875 -2.171875 "/></g></g></g><g fill="#1158c9" fill-opacity="0.4"><g transform="translate(61.039873, 25.661503)"><g><path d="M 5.640625 -7.546875 C 6.503906 -7.546875 7.1875 -7.257812 7.6875 -6.6875 C 8.195312 -6.113281 8.453125 -5.335938 8.453125 -4.359375 L 8.453125 0 L 5.84375 0 L 5.84375 -4.015625 C 5.84375 -4.441406 5.726562 -4.773438 5.5 -5.015625 C 5.28125 -5.265625 4.984375 -5.390625 4.609375 -5.390625 C 4.222656 -5.390625 3.914062 -5.265625 3.6875 -5.015625 C 3.46875 -4.773438 3.359375 -4.441406 3.359375 -4.015625 L 3.359375 0 L 0.75 0 L 0.75 -7.484375 L 3.359375 -7.484375 L 3.359375 -6.40625 C 3.585938 -6.75 3.894531 -7.023438 4.28125 -7.234375 C 4.675781 -7.441406 5.128906 -7.546875 5.640625 -7.546875 Z M 5.640625 -7.546875 "/></g></g></g><g fill="#1158c9" fill-opacity="0.4"><g transform="translate(70.92064, 25.661503)"><g><path d="M 4.296875 0.09375 C 3.203125 0.09375 2.300781 -0.164062 1.59375 -0.6875 C 0.894531 -1.207031 0.519531 -1.953125 0.46875 -2.921875 L 3.25 -2.921875 C 3.28125 -2.585938 3.378906 -2.34375 3.546875 -2.1875 C 3.710938 -2.039062 3.929688 -1.96875 4.203125 -1.96875 C 4.441406 -1.96875 4.640625 -2.023438 4.796875 -2.140625 C 4.953125 -2.265625 5.03125 -2.4375 5.03125 -2.65625 C 5.03125 -2.925781 4.898438 -3.132812 4.640625 -3.28125 C 4.378906 -3.4375 3.960938 -3.609375 3.390625 -3.796875 C 2.773438 -4.003906 2.273438 -4.203125 1.890625 -4.390625 C 1.515625 -4.578125 1.1875 -4.851562 0.90625 -5.21875 C 0.632812 -5.59375 0.5 -6.078125 0.5 -6.671875 C 0.5 -7.273438 0.648438 -7.789062 0.953125 -8.21875 C 1.253906 -8.65625 1.671875 -8.984375 2.203125 -9.203125 C 2.734375 -9.429688 3.335938 -9.546875 4.015625 -9.546875 C 5.109375 -9.546875 5.976562 -9.289062 6.625 -8.78125 C 7.28125 -8.269531 7.628906 -7.550781 7.671875 -6.625 L 4.84375 -6.625 C 4.832031 -6.90625 4.742188 -7.117188 4.578125 -7.265625 C 4.410156 -7.410156 4.195312 -7.484375 3.9375 -7.484375 C 3.75 -7.484375 3.59375 -7.421875 3.46875 -7.296875 C 3.34375 -7.179688 3.28125 -7.019531 3.28125 -6.8125 C 3.28125 -6.632812 3.347656 -6.476562 3.484375 -6.34375 C 3.617188 -6.21875 3.789062 -6.109375 4 -6.015625 C 4.207031 -5.921875 4.507812 -5.804688 4.90625 -5.671875 C 5.5 -5.460938 5.988281 -5.257812 6.375 -5.0625 C 6.757812 -4.863281 7.09375 -4.582031 7.375 -4.21875 C 7.65625 -3.851562 7.796875 -3.398438 7.796875 -2.859375 C 7.796875 -2.296875 7.65625 -1.789062 7.375 -1.34375 C 7.09375 -0.90625 6.6875 -0.554688 6.15625 -0.296875 C 5.632812 -0.0351562 5.015625 0.09375 4.296875 0.09375 Z M 4.296875 0.09375 "/></g></g></g><g fill="#1158c9" fill-opacity="0.4"><g transform="translate(79.922548, 25.661503)"><g><path d="M 0.3125 -3.75 C 0.3125 -4.519531 0.453125 -5.191406 0.734375 -5.765625 C 1.015625 -6.347656 1.394531 -6.796875 1.875 -7.109375 C 2.363281 -7.421875 2.90625 -7.578125 3.5 -7.578125 C 4.019531 -7.578125 4.460938 -7.472656 4.828125 -7.265625 C 5.203125 -7.054688 5.492188 -6.78125 5.703125 -6.4375 L 5.703125 -7.484375 L 8.3125 -7.484375 L 8.3125 0 L 5.703125 0 L 5.703125 -1.046875 C 5.492188 -0.691406 5.203125 -0.410156 4.828125 -0.203125 C 4.453125 -0.00390625 4.007812 0.09375 3.5 0.09375 C 2.90625 0.09375 2.363281 -0.0625 1.875 -0.375 C 1.394531 -0.6875 1.015625 -1.128906 0.734375 -1.703125 C 0.453125 -2.285156 0.3125 -2.96875 0.3125 -3.75 Z M 5.703125 -3.75 C 5.703125 -4.226562 5.570312 -4.601562 5.3125 -4.875 C 5.050781 -5.15625 4.726562 -5.296875 4.34375 -5.296875 C 3.957031 -5.296875 3.632812 -5.160156 3.375 -4.890625 C 3.113281 -4.617188 2.984375 -4.238281 2.984375 -3.75 C 2.984375 -3.269531 3.113281 -2.890625 3.375 -2.609375 C 3.632812 -2.328125 3.957031 -2.1875 4.34375 -2.1875 C 4.726562 -2.1875 5.050781 -2.320312 5.3125 -2.59375 C 5.570312 -2.875 5.703125 -3.257812 5.703125 -3.75 Z M 5.703125 -3.75 "/></g></g></g><g fill="#1158c9" fill-opacity="0.4"><g transform="translate(89.723414, 25.661503)"><g><path d="M 3.5 -7.578125 C 4.007812 -7.578125 4.453125 -7.472656 4.828125 -7.265625 C 5.203125 -7.054688 5.492188 -6.78125 5.703125 -6.4375 L 5.703125 -7.484375 L 8.3125 -7.484375 L 8.3125 -0.078125 C 8.3125 0.617188 8.175781 1.25 7.90625 1.8125 C 7.644531 2.382812 7.234375 2.835938 6.671875 3.171875 C 6.109375 3.503906 5.394531 3.671875 4.53125 3.671875 C 3.375 3.671875 2.445312 3.398438 1.75 2.859375 C 1.0625 2.316406 0.671875 1.582031 0.578125 0.65625 L 3.140625 0.65625 C 3.191406 0.894531 3.320312 1.078125 3.53125 1.203125 C 3.75 1.335938 4.03125 1.40625 4.375 1.40625 C 5.257812 1.40625 5.703125 0.910156 5.703125 -0.078125 L 5.703125 -1.046875 C 5.492188 -0.691406 5.203125 -0.410156 4.828125 -0.203125 C 4.453125 -0.00390625 4.007812 0.09375 3.5 0.09375 C 2.90625 0.09375 2.363281 -0.0625 1.875 -0.375 C 1.394531 -0.6875 1.015625 -1.128906 0.734375 -1.703125 C 0.453125 -2.285156 0.3125 -2.96875 0.3125 -3.75 C 0.3125 -4.519531 0.453125 -5.191406 0.734375 -5.765625 C 1.015625 -6.347656 1.394531 -6.796875 1.875 -7.109375 C 2.363281 -7.421875 2.90625 -7.578125 3.5 -7.578125 Z M 5.703125 -3.75 C 5.703125 -4.226562 5.570312 -4.601562 5.3125 -4.875 C 5.050781 -5.15625 4.726562 -5.296875 4.34375 -5.296875 C 3.957031 -5.296875 3.632812 -5.160156 3.375 -4.890625 C 3.113281 -4.617188 2.984375 -4.238281 2.984375 -3.75 C 2.984375 -3.269531 3.113281 -2.890625 3.375 -2.609375 C 3.632812 -2.328125 3.957031 -2.1875 4.34375 -2.1875 C 4.726562 -2.1875 5.050781 -2.320312 5.3125 -2.59375 C 5.570312 -2.875 5.703125 -3.257812 5.703125 -3.75 Z M 5.703125 -3.75 "/></g></g></g><g fill="#1158c9" fill-opacity="0.4"><g transform="translate(99.52428, 25.661503)"><g><path d="M 0.3125 -3.75 C 0.3125 -4.519531 0.453125 -5.191406 0.734375 -5.765625 C 1.015625 -6.347656 1.394531 -6.796875 1.875 -7.109375 C 2.363281 -7.421875 2.90625 -7.578125 3.5 -7.578125 C 4.019531 -7.578125 4.460938 -7.472656 4.828125 -7.265625 C 5.203125 -7.054688 5.492188 -6.78125 5.703125 -6.4375 L 5.703125 -7.484375 L 8.3125 -7.484375 L 8.3125 0 L 5.703125 0 L 5.703125 -1.046875 C 5.492188 -0.691406 5.203125 -0.410156 4.828125 -0.203125 C 4.453125 -0.00390625 4.007812 0.09375 3.5 0.09375 C 2.90625 0.09375 2.363281 -0.0625 1.875 -0.375 C 1.394531 -0.6875 1.015625 -1.128906 0.734375 -1.703125 C 0.453125 -2.285156 0.3125 -2.96875 0.3125 -3.75 Z M 5.703125 -3.75 C 5.703125 -4.226562 5.570312 -4.601562 5.3125 -4.875 C 5.050781 -5.15625 4.726562 -5.296875 4.34375 -5.296875 C 3.957031 -5.296875 3.632812 -5.160156 3.375 -4.890625 C 3.113281 -4.617188 2.984375 -4.238281 2.984375 -3.75 C 2.984375 -3.269531 3.113281 -2.890625 3.375 -2.609375 C 3.632812 -2.328125 3.957031 -2.1875 4.34375 -2.1875 C 4.726562 -2.1875 5.050781 -2.320312 5.3125 -2.59375 C 5.570312 -2.875 5.703125 -3.257812 5.703125 -3.75 Z M 5.703125 -3.75 "/></g></g></g><g fill="#1158c9" fill-opacity="0.4"><g transform="translate(109.325145, 25.661503)"><g><path d="M 3.359375 -6.15625 C 3.648438 -6.582031 4.003906 -6.921875 4.421875 -7.171875 C 4.835938 -7.421875 5.285156 -7.546875 5.765625 -7.546875 L 5.765625 -4.765625 L 5.03125 -4.765625 C 4.46875 -4.765625 4.046875 -4.648438 3.765625 -4.421875 C 3.492188 -4.203125 3.359375 -3.816406 3.359375 -3.265625 L 3.359375 0 L 0.75 0 L 0.75 -7.484375 L 3.359375 -7.484375 Z M 3.359375 -6.15625 "/></g></g></g><g fill="#ffffff" fill-opacity="1"><g transform="translate(30.555805, 25.072735)"><g><path d="M 6.6875 -1.53125 L 3.359375 -1.53125 L 2.859375 0 L 0.109375 0 L 3.53125 -9.390625 L 6.546875 -9.390625 L 9.953125 0 L 7.203125 0 Z M 6.03125 -3.53125 L 5.03125 -6.578125 L 4.03125 -3.53125 Z M 6.03125 -3.53125 "/></g></g></g><g fill="#ffffff" fill-opacity="1"><g transform="translate(41.355361, 25.072735)"><g><path d="M 5.640625 -7.546875 C 6.503906 -7.546875 7.1875 -7.257812 7.6875 -6.6875 C 8.195312 -6.113281 8.453125 -5.335938 8.453125 -4.359375 L 8.453125 0 L 5.84375 0 L 5.84375 -4.015625 C 5.84375 -4.441406 5.726562 -4.773438 5.5 -5.015625 C 5.28125 -5.265625 4.984375 -5.390625 4.609375 -5.390625 C 4.222656 -5.390625 3.914062 -5.265625 3.6875 -5.015625 C 3.46875 -4.773438 3.359375 -4.441406 3.359375 -4.015625 L 3.359375 0 L 0.75 0 L 0.75 -7.484375 L 3.359375 -7.484375 L 3.359375 -6.40625 C 3.585938 -6.75 3.894531 -7.023438 4.28125 -7.234375 C 4.675781 -7.441406 5.128906 -7.546875 5.640625 -7.546875 Z M 5.640625 -7.546875 "/></g></g></g><g fill="#ffffff" fill-opacity="1"><g transform="translate(51.23613, 25.072735)"><g><path d="M 4.21875 0.09375 C 3.476562 0.09375 2.8125 -0.0625 2.21875 -0.375 C 1.625 -0.6875 1.15625 -1.128906 0.8125 -1.703125 C 0.476562 -2.285156 0.3125 -2.96875 0.3125 -3.75 C 0.3125 -4.519531 0.484375 -5.191406 0.828125 -5.765625 C 1.171875 -6.347656 1.640625 -6.796875 2.234375 -7.109375 C 2.828125 -7.421875 3.492188 -7.578125 4.234375 -7.578125 C 4.984375 -7.578125 5.648438 -7.421875 6.234375 -7.109375 C 6.828125 -6.796875 7.296875 -6.347656 7.640625 -5.765625 C 7.984375 -5.191406 8.15625 -4.519531 8.15625 -3.75 C 8.15625 -2.96875 7.984375 -2.285156 7.640625 -1.703125 C 7.296875 -1.128906 6.828125 -0.6875 6.234375 -0.375 C 5.640625 -0.0625 4.96875 0.09375 4.21875 0.09375 Z M 4.21875 -2.171875 C 4.582031 -2.171875 4.882812 -2.304688 5.125 -2.578125 C 5.375 -2.847656 5.5 -3.238281 5.5 -3.75 C 5.5 -4.25 5.375 -4.628906 5.125 -4.890625 C 4.882812 -5.160156 4.585938 -5.296875 4.234375 -5.296875 C 3.878906 -5.296875 3.582031 -5.160156 3.34375 -4.890625 C 3.101562 -4.628906 2.984375 -4.25 2.984375 -3.75 C 2.984375 -3.226562 3.097656 -2.832031 3.328125 -2.5625 C 3.554688 -2.300781 3.851562 -2.171875 4.21875 -2.171875 Z M 4.21875 -2.171875 "/></g></g></g><g fill="#ffffff" fill-opacity="1"><g transform="translate(60.451103, 25.072735)"><g><path d="M 5.640625 -7.546875 C 6.503906 -7.546875 7.1875 -7.257812 7.6875 -6.6875 C 8.195312 -6.113281 8.453125 -5.335938 8.453125 -4.359375 L 8.453125 0 L 5.84375 0 L 5.84375 -4.015625 C 5.84375 -4.441406 5.726562 -4.773438 5.5 -5.015625 C 5.28125 -5.265625 4.984375 -5.390625 4.609375 -5.390625 C 4.222656 -5.390625 3.914062 -5.265625 3.6875 -5.015625 C 3.46875 -4.773438 3.359375 -4.441406 3.359375 -4.015625 L 3.359375 0 L 0.75 0 L 0.75 -7.484375 L 3.359375 -7.484375 L 3.359375 -6.40625 C 3.585938 -6.75 3.894531 -7.023438 4.28125 -7.234375 C 4.675781 -7.441406 5.128906 -7.546875 5.640625 -7.546875 Z M 5.640625 -7.546875 "/></g></g></g><g fill="#ffffff" fill-opacity="1"><g transform="translate(70.331871, 25.072735)"><g><path d="M 4.296875 0.09375 C 3.203125 0.09375 2.300781 -0.164062 1.59375 -0.6875 C 0.894531 -1.207031 0.519531 -1.953125 0.46875 -2.921875 L 3.25 -2.921875 C 3.28125 -2.585938 3.378906 -2.34375 3.546875 -2.1875 C 3.710938 -2.039062 3.929688 -1.96875 4.203125 -1.96875 C 4.441406 -1.96875 4.640625 -2.023438 4.796875 -2.140625 C 4.953125 -2.265625 5.03125 -2.4375 5.03125 -2.65625 C 5.03125 -2.925781 4.898438 -3.132812 4.640625 -3.28125 C 4.378906 -3.4375 3.960938 -3.609375 3.390625 -3.796875 C 2.773438 -4.003906 2.273438 -4.203125 1.890625 -4.390625 C 1.515625 -4.578125 1.1875 -4.851562 0.90625 -5.21875 C 0.632812 -5.59375 0.5 -6.078125 0.5 -6.671875 C 0.5 -7.273438 0.648438 -7.789062 0.953125 -8.21875 C 1.253906 -8.65625 1.671875 -8.984375 2.203125 -9.203125 C 2.734375 -9.429688 3.335938 -9.546875 4.015625 -9.546875 C 5.109375 -9.546875 5.976562 -9.289062 6.625 -8.78125 C 7.28125 -8.269531 7.628906 -7.550781 7.671875 -6.625 L 4.84375 -6.625 C 4.832031 -6.90625 4.742188 -7.117188 4.578125 -7.265625 C 4.410156 -7.410156 4.195312 -7.484375 3.9375 -7.484375 C 3.75 -7.484375 3.59375 -7.421875 3.46875 -7.296875 C 3.34375 -7.179688 3.28125 -7.019531 3.28125 -6.8125 C 3.28125 -6.632812 3.347656 -6.476562 3.484375 -6.34375 C 3.617188 -6.21875 3.789062 -6.109375 4 -6.015625 C 4.207031 -5.921875 4.507812 -5.804688 4.90625 -5.671875 C 5.5 -5.460938 5.988281 -5.257812 6.375 -5.0625 C 6.757812 -4.863281 7.09375 -4.582031 7.375 -4.21875 C 7.65625 -3.851562 7.796875 -3.398438 7.796875 -2.859375 C 7.796875 -2.296875 7.65625 -1.789062 7.375 -1.34375 C 7.09375 -0.90625 6.6875 -0.554688 6.15625 -0.296875 C 5.632812 -0.0351562 5.015625 0.09375 4.296875 0.09375 Z M 4.296875 0.09375 "/></g></g></g><g fill="#ffffff" fill-opacity="1"><g transform="translate(79.333778, 25.072735)"><g><path d="M 0.3125 -3.75 C 0.3125 -4.519531 0.453125 -5.191406 0.734375 -5.765625 C 1.015625 -6.347656 1.394531 -6.796875 1.875 -7.109375 C 2.363281 -7.421875 2.90625 -7.578125 3.5 -7.578125 C 4.019531 -7.578125 4.460938 -7.472656 4.828125 -7.265625 C 5.203125 -7.054688 5.492188 -6.78125 5.703125 -6.4375 L 5.703125 -7.484375 L 8.3125 -7.484375 L 8.3125 0 L 5.703125 0 L 5.703125 -1.046875 C 5.492188 -0.691406 5.203125 -0.410156 4.828125 -0.203125 C 4.453125 -0.00390625 4.007812 0.09375 3.5 0.09375 C 2.90625 0.09375 2.363281 -0.0625 1.875 -0.375 C 1.394531 -0.6875 1.015625 -1.128906 0.734375 -1.703125 C 0.453125 -2.285156 0.3125 -2.96875 0.3125 -3.75 Z M 5.703125 -3.75 C 5.703125 -4.226562 5.570312 -4.601562 5.3125 -4.875 C 5.050781 -5.15625 4.726562 -5.296875 4.34375 -5.296875 C 3.957031 -5.296875 3.632812 -5.160156 3.375 -4.890625 C 3.113281 -4.617188 2.984375 -4.238281 2.984375 -3.75 C 2.984375 -3.269531 3.113281 -2.890625 3.375 -2.609375 C 3.632812 -2.328125 3.957031 -2.1875 4.34375 -2.1875 C 4.726562 -2.1875 5.050781 -2.320312 5.3125 -2.59375 C 5.570312 -2.875 5.703125 -3.257812 5.703125 -3.75 Z M 5.703125 -3.75 "/></g></g></g><g fill="#ffffff" fill-opacity="1"><g transform="translate(89.134644, 25.072735)"><g><path d="M 3.5 -7.578125 C 4.007812 -7.578125 4.453125 -7.472656 4.828125 -7.265625 C 5.203125 -7.054688 5.492188 -6.78125 5.703125 -6.4375 L 5.703125 -7.484375 L 8.3125 -7.484375 L 8.3125 -0.078125 C 8.3125 0.617188 8.175781 1.25 7.90625 1.8125 C 7.644531 2.382812 7.234375 2.835938 6.671875 3.171875 C 6.109375 3.503906 5.394531 3.671875 4.53125 3.671875 C 3.375 3.671875 2.445312 3.398438 1.75 2.859375 C 1.0625 2.316406 0.671875 1.582031 0.578125 0.65625 L 3.140625 0.65625 C 3.191406 0.894531 3.320312 1.078125 3.53125 1.203125 C 3.75 1.335938 4.03125 1.40625 4.375 1.40625 C 5.257812 1.40625 5.703125 0.910156 5.703125 -0.078125 L 5.703125 -1.046875 C 5.492188 -0.691406 5.203125 -0.410156 4.828125 -0.203125 C 4.453125 -0.00390625 4.007812 0.09375 3.5 0.09375 C 2.90625 0.09375 2.363281 -0.0625 1.875 -0.375 C 1.394531 -0.6875 1.015625 -1.128906 0.734375 -1.703125 C 0.453125 -2.285156 0.3125 -2.96875 0.3125 -3.75 C 0.3125 -4.519531 0.453125 -5.191406 0.734375 -5.765625 C 1.015625 -6.347656 1.394531 -6.796875 1.875 -7.109375 C 2.363281 -7.421875 2.90625 -7.578125 3.5 -7.578125 Z M 5.703125 -3.75 C 5.703125 -4.226562 5.570312 -4.601562 5.3125 -4.875 C 5.050781 -5.15625 4.726562 -5.296875 4.34375 -5.296875 C 3.957031 -5.296875 3.632812 -5.160156 3.375 -4.890625 C 3.113281 -4.617188 2.984375 -4.238281 2.984375 -3.75 C 2.984375 -3.269531 3.113281 -2.890625 3.375 -2.609375 C 3.632812 -2.328125 3.957031 -2.1875 4.34375 -2.1875 C 4.726562 -2.1875 5.050781 -2.320312 5.3125 -2.59375 C 5.570312 -2.875 5.703125 -3.257812 5.703125 -3.75 Z M 5.703125 -3.75 "/></g></g></g><g fill="#ffffff" fill-opacity="1"><g transform="translate(98.93551, 25.072735)"><g><path d="M 0.3125 -3.75 C 0.3125 -4.519531 0.453125 -5.191406 0.734375 -5.765625 C 1.015625 -6.347656 1.394531 -6.796875 1.875 -7.109375 C 2.363281 -7.421875 2.90625 -7.578125 3.5 -7.578125 C 4.019531 -7.578125 4.460938 -7.472656 4.828125 -7.265625 C 5.203125 -7.054688 5.492188 -6.78125 5.703125 -6.4375 L 5.703125 -7.484375 L 8.3125 -7.484375 L 8.3125 0 L 5.703125 0 L 5.703125 -1.046875 C 5.492188 -0.691406 5.203125 -0.410156 4.828125 -0.203125 C 4.453125 -0.00390625 4.007812 0.09375 3.5 0.09375 C 2.90625 0.09375 2.363281 -0.0625 1.875 -0.375 C 1.394531 -0.6875 1.015625 -1.128906 0.734375 -1.703125 C 0.453125 -2.285156 0.3125 -2.96875 0.3125 -3.75 Z M 5.703125 -3.75 C 5.703125 -4.226562 5.570312 -4.601562 5.3125 -4.875 C 5.050781 -5.15625 4.726562 -5.296875 4.34375 -5.296875 C 3.957031 -5.296875 3.632812 -5.160156 3.375 -4.890625 C 3.113281 -4.617188 2.984375 -4.238281 2.984375 -3.75 C 2.984375 -3.269531 3.113281 -2.890625 3.375 -2.609375 C 3.632812 -2.328125 3.957031 -2.1875 4.34375 -2.1875 C 4.726562 -2.1875 5.050781 -2.320312 5.3125 -2.59375 C 5.570312 -2.875 5.703125 -3.257812 5.703125 -3.75 Z M 5.703125 -3.75 "/></g></g></g><g fill="#ffffff" fill-opacity="1"><g transform="translate(108.736376, 25.072735)"><g><path d="M 3.359375 -6.15625 C 3.648438 -6.582031 4.003906 -6.921875 4.421875 -7.171875 C 4.835938 -7.421875 5.285156 -7.546875 5.765625 -7.546875 L 5.765625 -4.765625 L 5.03125 -4.765625 C 4.46875 -4.765625 4.046875 -4.648438 3.765625 -4.421875 C 3.492188 -4.203125 3.359375 -3.816406 3.359375 -3.265625 L 3.359375 0 L 0.75 0 L 0.75 -7.484375 L 3.359375 -7.484375 Z M 3.359375 -6.15625 "/></g></g></g><g clip-path="url(#id1)"><path fill="#ffffff" d="M 15.867188 12.777344 L 20.332031 20.410156 L 18.382812 21.542969 L 15.867188 17.242188 L 13.429688 21.402344 C 12.695312 21.101562 11.96875 20.855469 11.25 20.667969 Z M 16.054688 23.375 L 23.957031 18.792969 C 23.171875 15.089844 19.847656 12.3125 15.867188 12.3125 C 11.417969 12.3125 7.789062 15.78125 7.609375 20.128906 C 6.757812 20.167969 4.5 20.40625 2.902344 21.765625 C 5.34375 20.523438 9.753906 19.605469 16.054688 23.375 " fill-opacity="1" fill-rule="nonzero"/></g><g clip-path="url(#id2)"><path fill="#ffffff" d="M 19.425781 23.328125 L 21.210938 21.914062 L 22.886719 24.78125 C 23.675781 23.527344 24.132812 22.054688 24.132812 20.472656 C 24.132812 20.230469 24.121094 19.992188 24.101562 19.757812 L 25.871094 17.679688 L 16.054688 25.464844 C 16.054688 25.464844 8.609375 17.953125 0.652344 23.410156 C 3.980469 21.59375 6.933594 22.121094 7.820312 22.347656 C 8.027344 23.21875 8.378906 24.039062 8.84375 24.777344 L 10.222656 22.421875 C 10.980469 22.671875 11.679688 22.984375 12.3125 23.316406 L 10.398438 26.589844 C 11.855469 27.859375 13.769531 28.628906 15.867188 28.628906 C 17.960938 28.628906 19.875 27.859375 21.332031 26.589844 L 19.425781 23.328125 " fill-opacity="1" fill-rule="nonzero"/></g></svg>